<svg width="171" height="47" viewBox="0 0 171 47" fill="none" xmlns="http://www.w3.org/2000/svg">
<rect x="50" y="9.5" width="118" height="23" fill="white"/>
<path d="M38.7371 0.0617902C39.0968 0.0341184 39.4842 -0.0765669 39.8163 0.0894636C38.5987 1.44538 37.4088 2.85664 36.551 4.48927C35.6655 6.09423 35.2228 7.94824 35.3058 9.80225C35.3888 11.9606 35.9146 14.0914 36.302 16.2221C36.8277 18.8786 37.1874 21.5904 37.3535 24.3022C37.5195 27.1801 37.2428 30.058 36.5233 32.8528C35.9422 35.0112 35.0567 37.1143 33.8668 38.9959C32.2342 41.5417 29.9651 43.7001 27.281 45.0561C25.1502 46.1629 22.7705 46.7717 20.3907 46.9377C19.2562 47.0208 18.1216 47.0208 17.0147 46.9377C13.3344 46.6334 9.73707 45.1668 6.88688 42.8147C3.0405 39.6878 0.467032 34.9835 0.0519553 30.0026C-0.0587317 27.9272 -0.0310608 25.8242 0.522374 23.8318C1.85062 18.2421 5.97371 13.3996 11.259 11.1582C11.342 11.1305 11.425 11.1028 11.5081 11.0752C11.5357 11.0475 11.5634 10.9921 11.5634 10.9645C11.176 10.9368 10.7886 10.9368 10.4012 10.9368C10.4012 10.245 10.3182 9.52553 10.4012 8.83374C12.6149 8.83374 14.801 8.83374 17.0147 8.83374C17.0424 8.50168 16.9594 0.781254 17.0701 0.310834C17.7619 0.310834 18.4537 0.310834 19.1455 0.310834C19.1455 3.16103 19.1455 5.98355 19.1455 8.83374C21.3039 8.83374 23.4899 8.83374 25.6483 8.83374C25.6483 9.55321 25.6483 10.245 25.6483 10.9645C23.4899 10.9645 21.3039 10.9645 19.1455 10.9645C19.1455 20.5389 19.1455 30.1133 19.1455 39.6877C18.4537 39.6877 17.7619 39.6877 17.0701 39.6877C16.9871 39.162 17.0701 13.2059 17.0147 11.6286C16.9041 11.6286 16.821 11.6286 16.7104 11.6286C15.2437 11.7393 13.7771 12.0437 12.3936 12.5694C10.7886 13.1782 9.29432 14.0637 7.96608 15.1706C4.31341 18.2421 2.12734 22.974 2.21035 27.7612C2.18268 31.0542 3.20654 34.3194 5.06054 37.0313C6.83154 39.6324 9.40501 41.7078 12.3659 42.8147C14.552 43.6448 16.9594 43.9492 19.2838 43.7001C22.0233 43.4511 24.7075 42.3996 26.8659 40.6286C29.135 38.7746 30.7953 36.2288 31.7084 33.4616C33.4241 28.37 32.76 22.5866 29.9651 17.9931C28.9689 16.3605 28.1388 14.6448 27.6407 12.7908C27.2256 11.2689 27.0873 9.63622 27.364 8.0866C27.613 6.73068 28.1941 5.40244 29.0796 4.32324C30.2695 2.82896 31.8745 1.7221 33.5901 0.919616C33.175 1.27935 32.8983 1.77744 32.6493 2.27553C32.2065 3.21637 31.9021 4.21255 31.6531 5.20874C32.5386 3.41007 34.1159 2.05416 35.8869 1.11332C36.717 0.587559 37.6855 0.200149 38.7371 0.0617902Z" fill="#0FACB2"/>
<path d="M78.0864 38.6086C78.0587 40.2689 79.3869 41.6801 81.1303 41.6524C81.656 41.6524 82.1541 41.5418 82.6522 41.3204V40.0475C82.1818 40.3242 81.7114 40.4626 81.1856 40.4626C80.6598 40.4626 80.2171 40.2965 79.8574 39.9368C79.5253 39.5771 79.3593 39.162 79.3593 38.6362C79.3593 38.1105 79.5253 37.6677 79.8574 37.3356C80.1894 36.9759 80.6322 36.8099 81.1856 36.8099C81.6837 36.8099 82.1818 36.9483 82.6522 37.225V35.9521C82.1541 35.7307 81.656 35.62 81.1303 35.62C79.3869 35.537 78.0587 36.9483 78.0864 38.6086Z" fill="#333333"/>
<path d="M99.0889 38.0551H96.6261V35.703H95.3809V41.4864H96.6261V39.1343H99.0889V41.4864H100.334V35.703H99.0889V38.0551Z" fill="#333333"/>
<path d="M116.938 39.1343C116.938 39.9645 116.523 40.4349 115.721 40.4349C114.89 40.4349 114.503 39.9645 114.503 39.1343V35.703H113.258V39.2173C113.258 39.9645 113.479 40.5456 113.922 40.9883C114.365 41.4311 114.973 41.6248 115.721 41.6248C116.495 41.6248 117.104 41.4034 117.547 40.9883C117.99 40.5456 118.211 39.9645 118.211 39.2173V35.703H116.966V39.1343H116.938Z" fill="#333333"/>
<path d="M135.478 37.5847C135.478 36.4502 134.786 35.703 133.679 35.703H131.105V41.4864H132.351V36.7545H133.292C133.928 36.7545 134.26 37.0036 134.26 37.5847C134.26 38.1658 133.956 38.4149 133.292 38.4149H132.406L134.149 41.4864H135.561L134.177 39.162C135.035 38.9406 135.478 38.3872 135.478 37.5847Z" fill="#333333"/>
<path d="M147.819 38.6086C147.791 40.2689 149.119 41.6801 150.863 41.6525C151.388 41.6525 151.887 41.5418 152.385 41.3204V40.0475C151.914 40.3242 151.444 40.4626 150.918 40.4626C150.392 40.4626 149.95 40.2965 149.59 39.9368C149.258 39.5771 149.092 39.162 149.092 38.6362C149.092 38.1105 149.258 37.6677 149.59 37.3357C149.922 36.9759 150.365 36.8099 150.918 36.8099C151.416 36.8099 151.914 36.9483 152.385 37.225V35.9521C151.887 35.7307 151.388 35.62 150.863 35.62C149.119 35.537 147.791 36.9483 147.819 38.6086Z" fill="#333333"/>
<path d="M168.821 35.703V38.0551H166.359V35.703H165.113V41.4864H166.359V39.1343H168.821V41.4864H170.067V35.703H168.821Z" fill="#333333"/>
<path d="M150.752 9.41485H48.4219V33.2679H141.51V14.1467H141.537L150.724 22.4206H150.752V9.41485ZM62.2024 17.9101C61.0955 17.2736 59.9333 16.9692 58.7434 16.9692C57.4705 16.9692 56.3913 17.3843 55.5889 18.2421C54.7864 19.0723 54.399 20.1238 54.399 21.369C54.399 22.6143 54.8141 23.6658 55.5889 24.496C56.3913 25.3261 57.4429 25.7688 58.7434 25.7688C59.961 25.7688 61.0955 25.4368 62.2024 24.828V27.8719C61.0125 28.3977 59.8226 28.6467 58.5497 28.6467C54.3713 28.7021 51.2167 25.3538 51.2997 21.3967C51.2167 17.4673 54.399 14.0914 58.5497 14.1467C59.795 14.1467 61.0125 14.3958 62.2024 14.9215V17.9101ZM79.2205 22.3376C79.1929 22.5036 79.1929 22.6419 79.1375 22.808C79.0822 23.1124 78.9992 23.4167 78.9162 23.7211C78.8608 23.8872 78.8055 24.0255 78.7501 24.1639C78.169 25.6028 77.1728 26.7927 75.7892 27.5952C74.9591 28.0933 74.0183 28.3977 73.0221 28.5084C72.8837 28.536 72.7454 28.536 72.607 28.536C72.4133 28.5637 72.2473 28.5637 72.0536 28.5637C71.8599 28.5637 71.6662 28.5637 71.4725 28.536C71.3064 28.536 71.1681 28.5083 71.002 28.4807C68.7053 28.1763 66.7959 26.8757 65.7167 24.9387C65.191 23.9979 64.8866 22.9463 64.8036 21.8118C64.8036 21.6458 64.7759 21.4797 64.7759 21.3137C64.7759 20.9816 64.8036 20.6773 64.8312 20.3452C65.1079 18.0761 66.3255 16.1944 68.2902 15.0322C69.3971 14.3681 70.6423 14.0637 72.0259 14.0637C73.4095 14.0637 74.6547 14.3958 75.7616 15.0322C76.8684 15.6963 77.7263 16.5542 78.335 17.661C78.9438 18.7402 79.2482 19.9855 79.2482 21.3137C79.2759 21.6734 79.2759 22.0055 79.2205 22.3376ZM87.7158 28.5637H87.6881L80.7702 14.4511H83.8971L87.6881 22.725L91.5068 14.4511H94.6337L87.7158 28.5637ZM106.782 17.0246H100.223V20.0131H106.062V22.5866H100.223V25.6305H106.782V28.2316H97.2625V14.4234H106.782V17.0246ZM122.61 28.5637H122.582L113.423 20.2898H113.367L113.395 28.2593H110.434V14.1467H110.462L119.649 22.4206H119.677L119.649 14.4511H122.61V28.5637ZM136.031 28.2593L135.034 25.9902H129.417L128.421 28.2593H125.294L132.212 14.1467H132.24L139.158 28.2593H136.031ZM72.0536 16.9139C70.8637 16.9139 69.8675 17.329 69.0927 18.1868C68.7329 18.5742 68.4839 18.9893 68.2902 19.432C68.1518 19.7641 68.0412 20.0961 67.9858 20.4282C67.9305 20.7049 67.9028 21.0093 67.9028 21.286C67.9028 21.369 67.9028 21.4244 67.9028 21.5074C68.0135 23.6105 69.4247 25.3538 71.4725 25.6582C71.6662 25.6858 71.8599 25.7135 72.0536 25.7135C72.2473 25.7135 72.441 25.7135 72.607 25.6858C73.5478 25.5751 74.3226 25.1601 74.9868 24.4406C75.3742 23.9979 75.6786 23.5274 75.8723 23.0017C76.0106 22.6696 76.0936 22.3376 76.1213 21.9778C76.149 21.7564 76.1766 21.5351 76.1766 21.286C76.1766 20.0685 75.7616 19.0169 74.9868 18.1591C74.2396 17.329 73.2434 16.9139 72.0536 16.9139Z" fill="#0FACB2"/>
<path d="M130.523 23.4721H133.927L132.211 19.6534L130.523 23.4721Z" fill="#0FACB2"/>
<path d="M167.189 17.0246H163.398V28.2316H160.437V17.0246H156.646V14.4234H167.189V17.0246ZM153.713 9.41485V28.536H153.685L144.498 20.2622H144.471L144.498 33.2679H170.095V9.41485H153.713Z" fill="#FE8F11"/>
<path d="M76.2055 21.3414C76.2055 21.5627 76.1778 21.7841 76.1502 22.0055C76.0948 22.3652 76.0118 22.6973 75.9011 23.0293C75.7074 23.5551 75.403 24.0255 75.0156 24.4683C74.3515 25.1877 73.5767 25.6028 72.6358 25.7135C72.4421 25.7412 72.2761 25.7412 72.0824 25.7412C71.8887 25.7412 71.695 25.7135 71.5013 25.6858C69.4536 25.4091 68.0147 23.6381 67.9316 21.5351C67.9316 21.452 67.9316 21.3967 67.9316 21.3137C67.9316 21.0093 67.9593 20.7326 68.0147 20.4559C68.07 20.0961 68.1807 19.7641 68.3191 19.4597C68.5128 19.0169 68.7895 18.6019 69.1215 18.2421C69.8963 17.3843 70.8925 16.9416 72.0824 16.9416C73.3 16.9416 74.2685 17.3566 75.0433 18.2421C75.7904 19.1 76.2055 20.1238 76.2055 21.3414Z" fill="#0FACB2"/>
</svg>
