<svg width="173" height="49" viewBox="0 0 173 49" fill="none" xmlns="http://www.w3.org/2000/svg">
<mask id="mask0_8457_61094" style="mask-type:alpha" maskUnits="userSpaceOnUse" x="0" y="0" width="172" height="48">
<path d="M39.5196 0.756373C39.8802 0.728638 40.2685 0.617702 40.6013 0.784109C39.381 2.1431 38.1884 3.55755 37.3286 5.19388C36.4411 6.80248 35.9974 8.66069 36.0806 10.5189C36.1638 12.6822 36.6907 14.8177 37.079 16.9533C37.606 19.6158 37.9665 22.3338 38.1329 25.0517C38.2993 27.9361 38.022 30.8205 37.3009 33.6217C36.7185 35.785 35.831 37.8928 34.6384 39.7787C33.0021 42.3303 30.7278 44.4936 28.0376 45.8526C25.902 46.962 23.5169 47.5721 21.1317 47.7385C19.9946 47.8217 18.8575 47.8217 17.7481 47.7385C14.0594 47.4334 10.454 45.9635 7.5973 43.6061C3.74222 40.4721 1.16291 35.7572 0.746897 30.765C0.635959 28.685 0.663693 26.5771 1.21838 24.5803C2.54964 18.9779 6.68207 14.1244 11.9793 11.8779C12.0625 11.8502 12.1458 11.8224 12.229 11.7947C12.2567 11.767 12.2844 11.7115 12.2844 11.6837C11.8961 11.656 11.5079 11.656 11.1196 11.656C11.1196 10.9627 11.0364 10.2416 11.1196 9.54819C13.3383 9.54819 15.5294 9.54819 17.7481 9.54819C17.7758 9.21538 17.6926 1.47747 17.8036 1.00598C18.4969 1.00598 19.1903 1.00598 19.8837 1.00598C19.8837 3.86263 19.8837 6.69155 19.8837 9.54819C22.0469 9.54819 24.238 9.54819 26.4013 9.54819C26.4013 10.2693 26.4013 10.9626 26.4013 11.6837C24.238 11.6837 22.0469 11.6837 19.8837 11.6837C19.8837 21.2799 19.8837 30.876 19.8837 40.4721C19.1903 40.4721 18.4969 40.4721 17.8036 40.4721C17.7204 39.9451 17.8036 13.9302 17.7481 12.3494C17.6372 12.3494 17.554 12.3494 17.443 12.3494C15.9731 12.4603 14.5032 12.7654 13.1165 13.2923C11.5079 13.9025 10.0102 14.79 8.67895 15.8994C5.018 18.9779 2.82698 23.7205 2.91018 28.5186C2.88245 31.819 3.90863 35.0916 5.76683 37.8096C7.54184 40.4166 10.1211 42.4967 13.0887 43.6061C15.2797 44.4381 17.6926 44.7432 20.0223 44.4936C22.768 44.244 25.4583 43.1901 27.6216 41.4151C29.8958 39.5569 31.5599 37.0053 32.4751 34.2318C34.1946 29.1287 33.529 23.3322 30.7278 18.7283C29.7294 17.092 28.8974 15.3724 28.3981 13.5142C27.9821 11.9888 27.8435 10.3525 28.1208 8.79936C28.3704 7.44037 28.9528 6.10912 29.8403 5.02748C31.0329 3.52982 32.6415 2.42044 34.361 1.61614C33.945 1.97669 33.6677 2.47591 33.4181 2.97513C32.9743 3.9181 32.6692 4.91654 32.4196 5.91498C33.3071 4.11224 34.888 2.75326 36.663 1.81029C37.495 1.28333 38.4657 0.895045 39.5196 0.756373Z" fill="#0FACB2"/>
<path d="M78.9579 39.3905C78.9302 41.0546 80.2615 42.469 82.0087 42.4413C82.5357 42.4413 83.0349 42.3304 83.5341 42.1085V40.8327C83.0626 41.11 82.5912 41.2487 82.0642 41.2487C81.5373 41.2487 81.0935 41.0823 80.7329 40.7218C80.4001 40.3612 80.2337 39.9452 80.2337 39.4182C80.2337 38.8913 80.4001 38.4475 80.7329 38.1147C81.0658 37.7542 81.5095 37.5878 82.0642 37.5878C82.5634 37.5878 83.0626 37.7264 83.5341 38.0038V36.728C83.0349 36.5061 82.5357 36.3952 82.0087 36.3952C80.2615 36.312 78.9302 37.7264 78.9579 39.3905Z" fill="#333333"/>
<path d="M100.009 38.8358H97.541V36.4783H96.293V42.2748H97.541V39.9174H100.009V42.2748H101.257V36.4783H100.009V38.8358Z" fill="#333333"/>
<path d="M117.898 39.9174C117.898 40.7494 117.482 41.2209 116.677 41.2209C115.845 41.2209 115.457 40.7494 115.457 39.9174V36.4783H114.209V40.0006C114.209 40.7494 114.431 41.3319 114.875 41.7756C115.318 42.2194 115.929 42.4135 116.677 42.4135C117.454 42.4135 118.064 42.1916 118.508 41.7756C118.952 41.3319 119.173 40.7494 119.173 40.0006V36.4783H117.925V39.9174H117.898Z" fill="#333333"/>
<path d="M136.48 38.3643C136.48 37.2272 135.786 36.4783 134.677 36.4783H132.098V42.2748H133.346V37.5322H134.289C134.927 37.5322 135.259 37.7819 135.259 38.3643C135.259 38.9467 134.954 39.1963 134.289 39.1963H133.401L135.148 42.2748H136.563L135.176 39.9451C136.036 39.7233 136.48 39.1686 136.48 38.3643Z" fill="#333333"/>
<path d="M148.85 39.3904C148.822 41.0545 150.153 42.4689 151.9 42.4412C152.427 42.4412 152.927 42.3303 153.426 42.1084V40.8326C152.954 41.1099 152.483 41.2486 151.956 41.2486C151.429 41.2486 150.985 41.0822 150.625 40.7217C150.292 40.3611 150.125 39.9451 150.125 39.4181C150.125 38.8912 150.292 38.4474 150.625 38.1146C150.957 37.7541 151.401 37.5877 151.956 37.5877C152.455 37.5877 152.954 37.7263 153.426 38.0037V36.7279C152.927 36.506 152.427 36.3951 151.9 36.3951C150.153 36.3119 148.822 37.7263 148.85 39.3904Z" fill="#333333"/>
<path d="M169.9 36.4783V38.8358H167.431V36.4783H166.183V42.2748H167.431V39.9174H169.9V42.2748H171.148V36.4783H169.9Z" fill="#333333"/>
<path d="M151.788 10.1303H49.2261V34.0374H142.525V14.8729H142.552L151.76 23.1655H151.788V10.1303ZM63.0378 18.6448C61.9285 18.0069 60.7636 17.7018 59.571 17.7018C58.2952 17.7018 57.2136 18.1178 56.4093 18.9776C55.605 19.8096 55.2167 20.8635 55.2167 22.1116C55.2167 23.3596 55.6327 24.4135 56.4093 25.2456C57.2136 26.0776 58.2675 26.5213 59.571 26.5213C60.7913 26.5213 61.9285 26.1885 63.0378 25.5784V28.6292C61.8452 29.1561 60.6527 29.4057 59.3769 29.4057C55.189 29.4612 52.0273 26.1053 52.1105 22.1393C52.0273 18.201 55.2167 14.8174 59.3769 14.8729C60.6249 14.8729 61.8452 15.1225 63.0378 15.6494V18.6448ZM80.0945 23.0823C80.0668 23.2487 80.0668 23.3874 80.0113 23.5538C79.9558 23.8588 79.8726 24.1639 79.7894 24.469C79.734 24.6354 79.6785 24.7741 79.623 24.9128C79.0406 26.3549 78.0422 27.5475 76.6554 28.3518C75.8234 28.851 74.8804 29.1561 73.882 29.2671C73.7433 29.2948 73.6047 29.2948 73.466 29.2948C73.2718 29.3225 73.1054 29.3225 72.9113 29.3225C72.7171 29.3225 72.523 29.3225 72.3289 29.2948C72.1625 29.2948 72.0238 29.267 71.8574 29.2393C69.5554 28.9342 67.6417 27.6307 66.5601 25.6893C66.0331 24.7463 65.7281 23.6924 65.6449 22.5553C65.6449 22.3889 65.6171 22.2225 65.6171 22.0561C65.6171 21.7233 65.6449 21.4182 65.6726 21.0854C65.9499 18.8112 67.1703 16.9252 69.1394 15.7604C70.2488 15.0948 71.4968 14.7897 72.8836 14.7897C74.2703 14.7897 75.5183 15.1225 76.6277 15.7604C77.7371 16.426 78.5968 17.2858 79.207 18.3952C79.8172 19.4768 80.1222 20.7249 80.1222 22.0561C80.15 22.4167 80.15 22.7495 80.0945 23.0823ZM88.609 29.3225H88.5812L81.6476 15.178H84.7816L88.5812 23.4706L92.4086 15.178H95.5426L88.609 29.3225ZM107.718 17.7573H101.145V20.7526H106.997V23.3319H101.145V26.3827H107.718V28.9897H98.1774V15.1502H107.718V17.7573ZM123.582 29.3225H123.554L114.374 21.0299H114.319L114.347 29.0174H111.379V14.8729H111.407L120.615 23.1655H120.642L120.615 15.178H123.582V29.3225ZM137.033 29.0174L136.035 26.7432H130.405L129.406 29.0174H126.272L133.206 14.8729H133.234L140.167 29.0174H137.033ZM72.9113 17.6463C71.7187 17.6463 70.7203 18.0623 69.9437 18.9221C69.5832 19.3104 69.3335 19.7264 69.1394 20.1702C69.0007 20.503 68.8898 20.8358 68.8343 21.1686C68.7789 21.4459 68.7511 21.751 68.7511 22.0284C68.7511 22.1116 68.7511 22.167 68.7511 22.2502C68.8621 24.3581 70.2765 26.1053 72.3289 26.4104C72.523 26.4381 72.7171 26.4659 72.9113 26.4659C73.1054 26.4659 73.2996 26.4659 73.466 26.4381C74.409 26.3272 75.1855 25.9112 75.8511 25.1901C76.2394 24.7463 76.5445 24.2749 76.7386 23.7479C76.8773 23.4151 76.9605 23.0823 76.9882 22.7217C77.016 22.4999 77.0437 22.278 77.0437 22.0284C77.0437 20.8081 76.6277 19.7541 75.8511 18.8944C75.1023 18.0623 74.1039 17.6463 72.9113 17.6463Z" fill="#0FACB2"/>
<path d="M131.516 24.2196H134.927L133.207 20.3923L131.516 24.2196Z" fill="#0FACB2"/>
<path d="M168.263 17.7573H164.464V28.9897H161.496V17.7573H157.696V15.1502H168.263V17.7573ZM154.756 10.1303V29.2948H154.729L145.521 21.0022H145.493L145.521 34.0374H171.175V10.1303H154.756Z" fill="#FE8F11"/>
<path d="M77.0724 22.084C77.0724 22.3059 77.0447 22.5277 77.0169 22.7496C76.9614 23.1102 76.8782 23.443 76.7673 23.7758C76.5732 24.3027 76.2681 24.7742 75.8798 25.218C75.2142 25.9391 74.4376 26.3551 73.4946 26.466C73.3005 26.4938 73.1341 26.4938 72.94 26.4938C72.7458 26.4938 72.5517 26.466 72.3575 26.4383C70.3052 26.1609 68.863 24.3859 68.7798 22.2781C68.7798 22.1949 68.7798 22.1395 68.7798 22.0563C68.7798 21.7512 68.8075 21.4738 68.863 21.1965C68.9185 20.8359 69.0294 20.5031 69.1681 20.198C69.3622 19.7543 69.6396 19.3383 69.9724 18.9777C70.7489 18.118 71.7474 17.6742 72.94 17.6742C74.1603 17.6742 75.131 18.0902 75.9075 18.9777C76.6564 19.8375 77.0724 20.8637 77.0724 22.084Z" fill="#0FACB2"/>
</mask>
<g mask="url(#mask0_8457_61094)">
<rect x="-27.0186" y="-0.985092" width="274.616" height="74.7426" fill="white"/>
</g>
</svg>
