<svg width="24" height="25" viewBox="0 0 24 25" fill="none" xmlns="http://www.w3.org/2000/svg">
<path fill-rule="evenodd" clip-rule="evenodd" d="M16 3.72412H8C5.23858 3.72412 3 5.9627 3 8.72412V16.7241C3 19.4855 5.23858 21.7241 8 21.7241H16C18.7614 21.7241 21 19.4855 21 16.7241V8.72412C21 5.9627 18.7614 3.72412 16 3.72412ZM19.25 16.7241C19.2445 18.5167 17.7926 19.9686 16 19.9741H8C6.20735 19.9686 4.75549 18.5167 4.75 16.7241V8.72412C4.75549 6.93147 6.20735 5.47961 8 5.47412H16C17.7926 5.47961 19.2445 6.93147 19.25 8.72412V16.7241ZM16.75 8.97412C17.3023 8.97412 17.75 8.5264 17.75 7.97412C17.75 7.42184 17.3023 6.97412 16.75 6.97412C16.1977 6.97412 15.75 7.42184 15.75 7.97412C15.75 8.5264 16.1977 8.97412 16.75 8.97412ZM12 8.22412C9.51472 8.22412 7.5 10.2388 7.5 12.7241C7.5 15.2094 9.51472 17.2241 12 17.2241C14.4853 17.2241 16.5 15.2094 16.5 12.7241C16.5027 11.5298 16.0294 10.3837 15.1849 9.5392C14.3404 8.69471 13.1943 8.22146 12 8.22412ZM9.25 12.7241C9.25 14.2429 10.4812 15.4741 12 15.4741C13.5188 15.4741 14.75 14.2429 14.75 12.7241C14.75 11.2053 13.5188 9.97412 12 9.97412C10.4812 9.97412 9.25 11.2053 9.25 12.7241Z" fill="white"/>
</svg>
