<svg width="24" height="25" viewBox="0 0 24 25" fill="none" xmlns="http://www.w3.org/2000/svg">
<path d="M21.5933 7.68445C21.4794 7.26185 21.2568 6.87646 20.9477 6.56662C20.6386 6.25678 20.2537 6.03331 19.8313 5.91845C18.2653 5.48845 12.0003 5.48145 12.0003 5.48145C12.0003 5.48145 5.73633 5.47445 4.16933 5.88545C3.74725 6.0056 3.36315 6.23223 3.0539 6.54359C2.74464 6.85494 2.52062 7.24057 2.40333 7.66345C1.99033 9.22945 1.98633 12.4775 1.98633 12.4775C1.98633 12.4775 1.98233 15.7415 2.39233 17.2915C2.62233 18.1485 3.29733 18.8255 4.15533 19.0565C5.73733 19.4865 11.9853 19.4935 11.9853 19.4935C11.9853 19.4935 18.2503 19.5005 19.8163 19.0905C20.2388 18.9758 20.6241 18.7528 20.934 18.4436C21.2439 18.1344 21.4677 17.7497 21.5833 17.3275C21.9973 15.7625 22.0003 12.5155 22.0003 12.5155C22.0003 12.5155 22.0203 9.25045 21.5933 7.68445ZM9.99633 15.4865L10.0013 9.48645L15.2083 12.4915L9.99633 15.4865Z" fill="white"/>
</svg>
